<svg width="57" height="30" viewBox="0 0 57 30" fill="none" xmlns="http://www.w3.org/2000/svg">
<path fill-rule="evenodd" clip-rule="evenodd" d="M37.2752 23.2732C37.1735 24.8779 35.2244 26.3544 31.8641 27.2759C28.4191 28.2228 23.5926 28.5723 18.7511 28.2163C13.9095 27.8504 9.1871 26.7834 5.92122 25.3338C2.64193 23.8845 0.933125 22.0764 1.17728 20.4407L1.64754 14.1582L37.7499 16.8598L37.2752 23.2732V23.2732Z" fill="white" stroke="#2B2A29" stroke-width="2" stroke-miterlimit="22.9256" stroke-linecap="round" stroke-linejoin="round"/>
<path fill-rule="evenodd" clip-rule="evenodd" d="M20.158 9.37248C24.7845 9.69525 29.361 10.6925 32.5828 12.0805C35.8543 13.4519 37.798 15.2061 37.7501 16.8605C37.7482 18.5148 35.7858 20.0473 32.3345 20.9938C28.8895 21.9407 24.063 22.2902 19.2216 21.9343C14.3803 21.5683 9.65783 20.501 6.39165 19.0519C3.11276 17.6026 1.40385 15.7946 1.64798 14.1584C1.84641 12.514 4.0288 11.0693 7.46901 10.2011C10.8617 9.30684 15.5346 9.00321 20.158 9.37248V9.37248Z" fill="white" stroke="#2B2A29" stroke-width="2" stroke-miterlimit="22.9256"/>
<path d="M29.615 22.0957L29.2285 27.3154" stroke="#2B2A29" stroke-width="2" stroke-miterlimit="22.9256" stroke-linecap="round" stroke-linejoin="round"/>
<path d="M19.2216 21.9336L18.8389 27.5803" stroke="#2B2A29" stroke-width="2" stroke-miterlimit="22.9256" stroke-linecap="round" stroke-linejoin="round"/>
<path d="M7.91569 19.6631L7.24512 25.1612" stroke="#2B2A29" stroke-width="2" stroke-miterlimit="22.9256" stroke-linecap="round" stroke-linejoin="round"/>
<path fill-rule="evenodd" clip-rule="evenodd" d="M52.7776 24.6134C52.0979 26.07 49.7452 26.7316 46.281 26.3603C42.7287 25.9817 38.108 24.5416 33.7308 22.4393C29.3568 20.3276 25.3495 17.6069 22.8376 15.0628C20.3131 12.5141 19.3815 10.2058 20.2051 8.77235L22.9331 3.0957L55.5574 18.8165L52.7776 24.6134V24.6134Z" fill="white" stroke="#2B2A29" stroke-width="2" stroke-miterlimit="22.9256" stroke-linecap="round" stroke-linejoin="round"/>
<path fill-rule="evenodd" clip-rule="evenodd" d="M41.9101 5.41122C46.0994 7.40402 49.9963 10.0064 52.4896 12.4771C55.0353 14.9505 56.2053 17.2945 55.5576 18.817C54.9528 20.3564 52.5671 21.0653 49.0092 20.684C45.4569 20.3053 40.8363 18.8652 36.459 16.763C32.0854 14.6514 28.0781 11.9304 25.5658 9.38665C23.0417 6.83806 22.1099 4.52977 22.9336 3.0959C23.7178 1.63769 26.2761 1.09105 29.7953 1.54111C33.2796 1.94964 37.7405 3.37627 41.9101 5.41122V5.41122Z" fill="white" stroke="#2B2A29" stroke-width="2" stroke-miterlimit="22.9256"/>
<path d="M46.0751 20.7148L43.8125 25.4327" stroke="#2B2A29" stroke-width="2" stroke-miterlimit="22.9256" stroke-linecap="round" stroke-linejoin="round"/>
<path d="M36.4583 16.7627L33.8125 21.7744" stroke="#2B2A29" stroke-width="2" stroke-miterlimit="22.9256" stroke-linecap="round" stroke-linejoin="round"/>
<path d="M26.7621 10.5137L23.6689 15.4842" stroke="#2B2A29" stroke-width="2" stroke-miterlimit="22.9256" stroke-linecap="round" stroke-linejoin="round"/>
</svg>
