<svg width="33" height="43" viewBox="0 0 33 43" fill="none" xmlns="http://www.w3.org/2000/svg">
<path d="M14.9459 10.5718C14.5737 5.14577 12.8397 3.30736 11.1539 3.33504C10.3106 3.34841 9.44582 3.80356 8.77917 4.47823C8.10985 5.15648 7.66453 6.0275 7.66185 6.86727C7.6565 8.55576 9.51544 10.2692 14.9459 10.5718ZM10.166 39.8131V13.7622H5.44149C4.96583 13.7622 4.5312 13.9585 4.21708 14.2727C3.90293 14.5868 3.70661 15.0214 3.70661 15.4971V38.0782C3.70661 38.5539 3.90293 38.9885 4.21708 39.3027C4.5312 39.6168 4.96583 39.8131 5.44149 39.8131H10.166ZM13.3145 13.7622V39.8131H19.848V13.7622H13.3145ZM22.9965 13.7622V39.8131H27.721C28.1967 39.8131 28.6313 39.6168 28.9454 39.3027C29.2596 38.9885 29.4559 38.5539 29.4559 38.0782V15.4971C29.4559 15.0214 29.2596 14.5868 28.9454 14.2727C28.6313 13.9585 28.1967 13.7622 27.721 13.7622H22.9965ZM16.5808 4.01506C17.9453 1.21729 20.0167 0.165125 22.0577 0.199034C23.7569 0.225817 25.4096 1.05131 26.6207 2.27751C27.829 3.50014 28.6295 5.16095 28.6367 6.86102C28.6411 8.17111 28.1994 9.48656 27.1392 10.6137H27.721C29.065 10.6137 30.2876 11.1634 31.1712 12.0469C32.0547 12.9305 32.6044 14.1531 32.6044 15.4971V38.0782C32.6044 39.4223 32.0547 40.6449 31.1712 41.5284C30.2876 42.4119 29.065 42.9616 27.721 42.9616H21.4222H11.7403H5.44149C4.0975 42.9616 2.87486 42.4119 1.99136 41.5284C1.10785 40.6449 0.558105 39.4223 0.558105 38.0782V15.4971C0.558105 14.1531 1.10785 12.9305 1.99136 12.0469C2.87486 11.1634 4.0975 10.6137 5.44149 10.6137H6.02246C4.96315 9.48924 4.5214 8.17469 4.52586 6.86727C4.5312 5.16273 5.3344 3.50014 6.54096 2.27751C7.75199 1.05131 9.40388 0.227598 11.104 0.199034C13.1449 0.165125 15.2154 1.2182 16.5808 4.01506ZM22.0077 3.33504C20.3228 3.30736 18.5888 5.14577 18.2175 10.5718C23.6444 10.2701 25.5042 8.55754 25.5006 6.86995C25.4971 6.0266 25.0518 5.15648 24.3824 4.47823C23.7158 3.80356 22.851 3.34841 22.0077 3.33504Z" fill="#2B2A29"/>
</svg>
