<svg width="41" height="43" viewBox="0 0 41 43" fill="none" xmlns="http://www.w3.org/2000/svg">
<path d="M1.72044 11.0909C0.850628 11.0909 0.145142 10.3855 0.145142 9.51565C0.145142 8.64584 0.850628 7.94036 1.72044 7.94036H10.8427V5.83727C10.8427 4.22714 11.5017 2.7617 12.5609 1.70257C13.62 0.643442 15.0855 -0.015625 16.6956 -0.015625H24.0523C25.6571 -0.015625 27.1208 0.643442 28.1808 1.70257C29.2462 2.7617 29.9052 4.22714 29.9052 5.83727V7.94036H39.0266C39.8964 7.94036 40.6019 8.64584 40.6019 9.51565C40.6019 10.3855 39.8964 11.0909 39.0266 11.0909H35.2527V41.2074C35.2527 42.0772 34.5472 42.7827 33.6774 42.7827H7.06788C6.19807 42.7827 5.49258 42.0772 5.49258 41.2074V11.0909H1.72044ZM13.9933 7.94036H26.7547V5.83727C26.7547 5.09607 26.4492 4.41915 25.9598 3.92977C25.4731 3.43861 24.7953 3.13498 24.0523 3.13498H16.6956C15.9544 3.13498 15.2775 3.44039 14.7881 3.92977C14.2987 4.41915 13.9933 5.09607 13.9933 5.83727V7.94036ZM15.7267 33.1835C15.7267 34.0533 15.0212 34.7588 14.1514 34.7588C13.2816 34.7588 12.5761 34.0533 12.5761 33.1835V16.4688C12.5761 15.5989 13.2816 14.8935 14.1514 14.8935C15.0212 14.8935 15.7267 15.5989 15.7267 16.4688V33.1835ZM28.1656 33.1835C28.1656 34.0533 27.4601 34.7588 26.5903 34.7588C25.7205 34.7588 25.015 34.0533 25.015 33.1835V16.4688C25.015 15.5989 25.7205 14.8935 26.5903 14.8935C27.4601 14.8935 28.1656 15.5989 28.1656 16.4688V33.1835ZM32.1021 11.0918H8.64317V39.6321H32.1021V11.0918ZM21.9493 33.1835C21.9493 34.0533 21.2438 34.7588 20.374 34.7588C19.5042 34.7588 18.7987 34.0533 18.7987 33.1835V16.4688C18.7987 15.5989 19.5042 14.8935 20.374 14.8935C21.2438 14.8935 21.9493 15.5989 21.9493 16.4688V33.1835Z" fill="#2B2A29"/>
</svg>
