<svg width="53" height="53" viewBox="0 0 53 53" fill="none" xmlns="http://www.w3.org/2000/svg">
<path fill-rule="evenodd" clip-rule="evenodd" d="M26.4996 0.883789C40.6474 0.883789 52.1166 12.353 52.1166 26.5008C52.1166 40.6479 40.6474 52.1171 26.4996 52.1171C12.3526 52.1171 0.883301 40.6479 0.883301 26.5008C0.883301 12.353 12.3526 0.883789 26.4996 0.883789Z" fill="#FEFEFE" stroke="#2B2A29" stroke-miterlimit="22.9256"/>
<path fill-rule="evenodd" clip-rule="evenodd" d="M30.3803 15.87C28.6418 17.1679 25.88 17.422 24.5087 16.071C23.0979 14.6817 23.6084 12.1819 24.8871 10.9032C26.1387 9.65728 28.5458 9.12863 30.1453 9.75894C32.7208 10.8241 32.4564 14.3202 30.3803 15.87ZM29.6991 26.148L27.0819 36.1301C26.5939 38.0414 27.257 38.2007 29.0609 37.0993L31.4839 35.5913C31.6714 35.7596 32.4203 36.7729 32.479 36.9988C30.5847 38.9959 25.0035 43.1991 21.4408 42.7597C19.464 42.597 19.333 40.4045 19.6154 38.8637L22.2224 27.8469C22.4167 27.1827 22.916 26.0249 21.2487 26.8043L17.8498 28.3948L16.9371 27.0189C17.7583 25.5866 24.0015 22.2578 26.3714 21.5676C30.9767 20.0144 30.4063 23.4314 29.6991 26.148Z" fill="#2B2A29"/>
</svg>
