<svg width="30" height="29" viewBox="0 0 30 29" fill="none" xmlns="http://www.w3.org/2000/svg">
<path d="M0.919922 14.6C0.919922 22.5552 7.39672 29.032 15.3519 29.032C23.3071 29.032 29.7839 22.5552 29.7839 14.6C29.7837 6.64477 23.3071 0.167969 15.3519 0.167969C7.39672 0.167969 0.919922 6.64477 0.919922 14.6ZM7.99512 13.896C8.6286 13.2626 9.64952 13.2626 10.2479 13.896L12.3247 15.9728C12.6063 16.2544 13.0991 16.2544 13.3807 15.9728L20.4559 8.89757C21.0894 8.26409 22.1103 8.26409 22.7087 8.89757C23.3422 9.53104 23.3422 10.552 22.7087 11.1504L13.9791 19.88C13.3456 20.5134 12.3247 20.5134 11.7263 19.88L7.99493 16.1488C7.36146 15.5151 7.36146 14.5295 7.99493 13.896H7.99512Z" fill="#7BB933"/>
</svg>
